<svg xmlns="http://www.w3.org/2000/svg" width="82" height="90.344" viewBox="0 0 82 90.344"><defs><filter id="A" x="0" y=".313" width="83" height="90.344" filterUnits="userSpaceOnUse"><feFlood flood-color="#e42626"/><feComposite operator="in" in2="SourceGraphic"/><feBlend in2="SourceGraphic"/></filter></defs><path d="M59.033 8.38a47 47 0 0 0 3.612-3.836c.78-.786.774-2.054-.012-2.833S60.58.938 59.8 1.724a47.84 47.84 0 0 1-3.9 4.117c-4.728-3.1-10.403-4.45-16.023-3.787a27.12 27.12 0 0 0-10.39 3.14C28.5 3.92 27.566 2.612 26.64 1.3 26.064.364 24.854.047 23.893.58c-.458.266-.79.703-.926 1.215s-.06 1.057.205 1.514q1.444 2.05 2.963 4.04c-.457-.6-6.41 6.905-6.843 7.642-1.26 2.142-5.463 10.358-2.853 12.383 1.115.864 3.33.256 4.676.262 2.1.01 4.2.084 6.29.137l12.907.38 25.43.417a1.85 1.85 0 0 0 1.857-1.416c.264-.43.352-.947.247-1.442C66.5 18.78 63.51 12.673 59.033 8.38zm-38.84 15.246c1.765-9.545 9.96-16.295 19.687-17.585 12.858-1.7 20.72 7.3 23.6 18.537-14.436.02-28.857-.707-43.287-.952zm45.552 6.936l-47.2-.167a1.84 1.84 0 0 0-1.879 1.488 2 2 0 0 0-.464 1.172c-.756 9.962-.238 19.952-.67 29.924-.007.168.006.336.04.5a2.15 2.15 0 0 0 .032.361 8.84 8.84 0 0 0 9.607 7.341c-.69.045.036 11.746.11 12.476.264 2.558.9 5.438 3.557 6.51 3.063 1.235 6.693-.495 8.7-2.813 3.625-4.18 3.3-10.5 3-15.658.992-.04 1.985-.055 2.978-.06-.685 0-.538 11.058-.3 12.133 1.055 4.8 5.667 8.23 10.463 6.4 4.674-1.785 5.712-6.2 5.5-10.69-.12-2.537-.2-5.158-.484-7.68 1.582-.096 3.107-.622 4.41-1.522 2.19-1.592 3.028-4.04 3.266-6.63.006-.11.006-.22 0-.332.807-10.014 1.14-20.042 1.168-30.086.23-.604.15-1.283-.218-1.815s-.972-.85-1.62-.85zM62.4 63.314a2.02 2.02 0 0 0 .006.3c0 .012 0 .02-.006.03-.328 3.565-2.947 4.44-6.193 4.157-1.822-.16-2.34 1.78-1.592 3.015.685 5.425 2.957 14.52-3.87 16.083-6.634-2.044-3.173-12-3.076-17.1a1.91 1.91 0 0 0-2.459-1.87c-1.868.4-4.43-.29-6.4-.125-.142.013-.283.037-.422.07-.523-.045-1.038.144-1.41.515s-.558.887-.513 1.41c.258 4.773 2.39 15.892-4.687 16.625-.06.006-.1.023-.168.034-5.155-2.684-2.218-12.918-2.343-17.5a1.94 1.94 0 0 0-1.931-1.918c-.257-.05-.52-.052-.778-.007a7.83 7.83 0 0 1-4.683-.288c-1.47-.7-2.017-2.2-2.327-3.687 0-.03.01-.055.012-.085.413-9.53-.03-19.07.587-28.59l43.4.154c-.048 9.6-.38 19.19-1.148 28.765zm18.158-34.937a2.16 2.16 0 0 0-.581-.533c-1.2-.732-2.6-1.066-4-.953-.224-.087-.46-.138-.7-.152-2.897-.283-5.5 1.747-5.952 4.624a2.53 2.53 0 0 0-.034.492 2.01 2.01 0 0 0-.2.869 230.25 230.25 0 0 0 .5 23.109c0 .02.008.036.01.056a2.33 2.33 0 0 0-.01.278 6.84 6.84 0 0 0 2.559 5.439c1.65 1.008 3.637 1.31 5.512.833.047 0 .1-.016.143-.023h.028c.22-.038.436-.105.64-.2a6.81 6.81 0 0 0 3.6-4.849 2.3 2.3 0 0 0 .049-.413c.006-.04.02-.076.022-.118C82.895 47.677 84 38.1 81.07 29.2a2.02 2.02 0 0 0-.512-.823zM78.293 55.36a11.74 11.74 0 0 1-.234 1.051c-.3 1.074-.865 2.222-2.04 2.24-4.452.072-2.854-17.195-2.954-20.1-.067-1.958-.857-5.78.78-7.35 4.266-4.082 4.9 6.924 5 8.525.422 5.21.237 10.454-.552 15.622zM4.3 28.284C0 30.19.37 34.88.337 38.807A217.61 217.61 0 0 0 .93 56.83c0 .02.008.036.01.056-.01.092-.012.185-.01.277.487 7.61 10.788 9.013 12.48 1.2.03-.136.046-.274.05-.413 0-.04.018-.076.02-.118.75-9.154 1.85-18.732-1.076-27.628C11.233 26.63 6.97 27.1 4.3 28.284zm5.2 29.152c-.067.3-.15.596-.25.887-.014.028-.027.057-.048.1-.1.18-.2.353-.3.52q-.2.292-.05.066a3.68 3.68 0 0 1-.386.378l-.123.084c-.05.033-.105.054-.157.082-.03 0-.057 0-.086.01a3.26 3.26 0 0 1-2.4-.277 3.25 3.25 0 0 1-.748-2.123c0-.013 0-.023-.006-.035a2.13 2.13 0 0 0 .006-.3c-.494-5.92-.35-11.802-.54-17.728-.058-1.848-.835-5.574.854-6.98 4.43-3.686 4.83 7.134 4.942 8.86.36 5.49-.25 10.986-.706 16.456zm21.1-43.164a2 2 0 0 0 0 3.99 2 2 0 0 0 0-3.99zm22.928-.167a2 2 0 0 0 0 3.99 2 2 0 0 0-.002-3.989z" transform="translate(0 -.313)" fill-rule="evenodd" filter="url(#A)"/></svg>