<svg xmlns="http://www.w3.org/2000/svg" width="47.878" height="61.2" viewBox="0 0 478.781 612"><defs><filter id="A" x=".219" y="-.375" width="479" height="612.375" filterUnits="userSpaceOnUse"><feFlood flood-color="#e42626"/><feComposite operator="in" in2="SourceGraphic"/><feBlend in2="SourceGraphic"/></filter></defs><path d="M333.6 612a82.96 82.96 0 0 1-47.633-14.6l-.864-.622c-.36-.272-12.105-9-32.076-9-12.5 0-25.586 3.458-38.914 10.277-4.044 2.478-22.705 13-46.536 13-19.544 0-37.362-6.78-52.958-20.155C89.926 569.72 8.715 490.353.665 358.14-3 297.938 16.6 240.31 54.408 200.04c34.306-36.54 79.766-52.927 123.2-44.224 22.736 4.332 44.628 12.288 64.84 23.564 16.75-8.4 58.35-26.624 103.646-26.624 54.112 0 96.178 26.284 121.638 76l5.77 11.276-10.34 7.3c-.543.378-56.12 40.416-55.917 88.836.107 26.4 17.216 51.7 50.873 75.208 10.584 7.428 17.793 18.748 20.048 31.48C489 482.5 414.28 579.46 369.506 604.616l-1.1.563c-11.032 4.57-22.866 6.888-34.806 6.82zm-30.95-38.483a54.43 54.43 0 0 0 30.951 9.315c7.643-.005 15.224-1.374 22.386-4.04 46.14-26.5 98.747-111.62 94.19-128.046l-.57-2.35c-.82-5.284-3.75-10-8.12-13.093-41.94-29.285-63.25-62.64-63.336-99.15-.126-48.944 38.66-88.068 57.856-104.435-20.524-33.043-50.72-49.79-89.912-49.79-49.884 0-96.38 26.546-96.847 26.818l-7.653 4.428-7.46-4.77c-28.68-18.357-61.387-23.854-61.717-23.9-6.023-1.228-12.153-1.853-18.3-1.866-28 0-55.888 13.278-78.516 37.386-31.87 33.936-49.02 84.9-45.9 136.342 7.352 120.764 81.338 193.085 103.84 212.377 10.175 8.722 21.63 13.152 34.034 13.152 11.043-.182 21.855-3.19 31.406-8.733l1.28-.758c17.663-9.15 35.412-13.78 52.764-13.78 28.21-.004 45.93 12.107 49.624 14.894zM240.043 155.78c-7.895 0-14.348-6.3-14.54-14.192C225.387 137.518 224.2 41.33 343.95.43c4.173-1.428 8.77-.885 12.494 1.478s6.175 6.29 6.662 10.673c.136 1.127 11.222 112.865-119.825 142.83-1.063.242-2.15.366-3.24.368zM333.32 36.007c-53.016 24.506-70.358 62.154-76.013 85.087 57.303-20.203 72.337-60.58 76.013-85.087z" transform="translate(-.219)" fill-rule="evenodd" filter="url(#A)"/></svg>