<svg xmlns="http://www.w3.org/2000/svg" xmlns:xlink="http://www.w3.org/1999/xlink" width="570" height="612" viewBox="0 0 570 612">
  <metadata><?xpacket begin="﻿" id="W5M0MpCehiHzreSzNTczkc9d"?>
<x:xmpmeta xmlns:x="adobe:ns:meta/" x:xmptk="Adobe XMP Core 5.6-c142 79.160924, 2017/07/13-01:06:39        ">
   <rdf:RDF xmlns:rdf="http://www.w3.org/1999/02/22-rdf-syntax-ns#">
      <rdf:Description rdf:about=""/>
   </rdf:RDF>
</x:xmpmeta>
                                                                                                    
                                                                                                    
                                                                                                    
                                                                                                    
                                                                                                    
                                                                                                    
                                                                                                    
                                                                                                    
                                                                                                    
                                                                                                    
                                                                                                    
                                                                                                    
                                                                                                    
                                                                                                    
                                                                                                    
                                                                                                    
                                                                                                    
                                                                                                    
                                                                                                    
                                                                                                    
                           
<?xpacket end="w"?></metadata>
<defs>
    <style>
      .cls-1 {
        fill-rule: evenodd;
        filter: url(#filter);
      }
    </style>
    <filter id="filter" x="0" y="0" width="570" height="612" filterUnits="userSpaceOnUse">
      <feFlood result="flood" flood-color="#c11717"/>
      <feComposite result="composite" operator="in" in2="SourceGraphic"/>
      <feBlend result="blend" in2="SourceGraphic"/>
    </filter>
  </defs>
  <path id="Forma_1" data-name="Forma 1" class="cls-1" d="M506.383,440.982l-96.769-24.128a9.876,9.876,0,0,0-1.231-1.543l-28.824-28.82V358.9q3.6-3.657,7.033-7.6c26.894-31.043,43.065-72.863,45.534-117.759q0.149-2.7.28-5.4c0.3-5.94.583-11.55,1.151-17.211h0L443.1,115.54A105.1,105.1,0,0,0,338.483,0H231.517A105.1,105.1,0,0,0,126.9,115.54l9.536,95.326c0.569,5.683.856,11.34,1.159,17.331q0.135,2.67.277,5.341c2.47,44.9,18.64,86.716,45.534,117.759q3.426,3.956,7.033,7.6v27.589L161.613,415.31a9.809,9.809,0,0,0-1.205,1.5l-96.8,24.175C22.592,451.233,0,476.4,0,511.838v69.1A31.106,31.106,0,0,0,31.079,612H538.921A31.105,31.105,0,0,0,570,580.937v-69.1C570,476.4,547.408,451.233,506.383,440.982ZM274.42,548.553h21.16c0.738,0,1.467-.036,2.193-0.086l7.443,43.706H264.784l7.443-43.706C272.953,548.517,273.682,548.553,274.42,548.553Zm32.4-31.063a11.25,11.25,0,0,1-11.241,11.236H274.42a11.25,11.25,0,0,1-11.241-11.236V501.647L285,487.107l21.821,14.54V517.49ZM210.278,375.9c22.438,16.031,48.1,24.61,74.722,24.61s52.284-8.579,74.721-24.61v10.59L285,461.173,210.278,386.49V375.9ZM322.3,488.13c-0.01-.007-0.021-0.013-0.031-0.021l-21.7-14.458,69.071-69.034,19.443,19.44c-6.561,11.831-21.969,39.547-43.724,78.647a0.536,0.536,0,0,1-.371.287,0.669,0.669,0,0,1-.547-0.108ZM168.269,47.876a85.471,85.471,0,0,1,63.248-28.049H338.483a85.272,85.272,0,0,1,84.879,93.738l-6.04,60.365c-13.4-31.922-28.23-52.369-29.1-53.56a9.92,9.92,0,0,0-13.59-2.325c-26.067,17.786-142.16,20.05-184.7,19.424a9.873,9.873,0,0,0-7.535,3.3c-12.155,13.56-21.718,28.807-28.812,42.177l-6.94-69.378A85.371,85.371,0,0,1,168.269,47.876ZM157.681,232.45q-0.144-2.628-.274-5.257c-0.06-1.212-.124-2.438-0.189-3.666,2.137-6.065,14.536-39.49,37.037-66.18,27.446,0.241,139.545.061,182.659-18.214,8.5,13.4,26.424,44.779,35.878,84.166-0.069,1.288-.133,2.573-0.2,3.843-0.09,1.767-.179,3.536-0.277,5.308C407.747,315.571,351.822,380.682,285,380.682S162.253,315.571,157.681,232.45Zm42.68,172.167,69.07,69.034-21.7,14.461-0.025.017L225.56,502.884a0.667,0.667,0,0,1-.548.109,0.533,0.533,0,0,1-.369-0.286c-21.755-39.1-37.163-66.818-43.724-78.649ZM19.838,580.937v-69.1c0-26.2,16.346-43.564,48.583-51.619l96.508-24.1c5.718,10.321,17.576,31.647,42.378,76.224a20.479,20.479,0,0,0,29.258,7.037l6.777-4.516v2.625a30.981,30.981,0,0,0,10.135,22.928l-8.815,51.756h-129.6V538.639a9.919,9.919,0,0,0-19.837,0v53.534H31.079A11.251,11.251,0,0,1,19.838,580.937Zm530.324,0a11.251,11.251,0,0,1-11.241,11.236H474.779V538.639a9.919,9.919,0,0,0-19.837,0v53.534h-129.6l-8.815-51.755a30.976,30.976,0,0,0,10.135-22.928v-2.625l6.777,4.517a20.631,20.631,0,0,0,11.424,3.452,20.4,20.4,0,0,0,17.834-10.491c24.776-44.531,36.635-65.858,42.36-76.192l96.523,24.068c32.24,8.055,48.586,25.422,48.586,51.618v69.1Z"/>
</svg>
