<svg xmlns="http://www.w3.org/2000/svg" xmlns:xlink="http://www.w3.org/1999/xlink" width="570" height="612" viewBox="0 0 570 612">
  <metadata><?xpacket begin="﻿" id="W5M0MpCehiHzreSzNTczkc9d"?>
<x:xmpmeta xmlns:x="adobe:ns:meta/" x:xmptk="Adobe XMP Core 5.6-c142 79.160924, 2017/07/13-01:06:39        ">
   <rdf:RDF xmlns:rdf="http://www.w3.org/1999/02/22-rdf-syntax-ns#">
      <rdf:Description rdf:about=""/>
   </rdf:RDF>
</x:xmpmeta>
                                                                                                    
                                                                                                    
                                                                                                    
                                                                                                    
                                                                                                    
                                                                                                    
                                                                                                    
                                                                                                    
                                                                                                    
                                                                                                    
                                                                                                    
                                                                                                    
                                                                                                    
                                                                                                    
                                                                                                    
                                                                                                    
                                                                                                    
                                                                                                    
                                                                                                    
                                                                                                    
                           
<?xpacket end="w"?></metadata>
<defs>
    <style>
      .cls-1 {
        fill-rule: evenodd;
        filter: url(#filter);
      }
    </style>
    <filter id="filter" x="0" y="0" width="570" height="612" filterUnits="userSpaceOnUse">
      <feFlood result="flood" flood-color="#c11717"/>
      <feComposite result="composite" operator="in" in2="SourceGraphic"/>
      <feBlend result="blend" in2="SourceGraphic"/>
    </filter>
  </defs>
  <path id="Forma_1" data-name="Forma 1" class="cls-1" d="M506.383,440.981l-96.768-24.128a9.772,9.772,0,0,0-1.231-1.543l-31.729-31.723a9.928,9.928,0,0,0-5.148-2.725C438.8,348.536,485.359,279.729,485.359,200.255,485.359,89.835,395.478,0,285,0S84.641,89.835,84.641,200.255c0,79.474,46.562,148.281,113.853,180.609a9.909,9.909,0,0,0-5.148,2.724l-31.729,31.723a9.873,9.873,0,0,0-1.2,1.5l-96.8,24.172C22.592,451.233,0,476.4,0,511.838v69.1A31.106,31.106,0,0,0,31.079,612H538.921A31.105,31.105,0,0,0,570,580.937v-69.1C570,476.4,547.408,451.233,506.383,440.981Zm-117.3-16.925c-7.6,13.713-26.253,47.245-43.726,78.65a0.532,0.532,0,0,1-.369.285,0.65,0.65,0,0,1-.547-0.107L322.3,488.134l-0.043-.028-21.693-14.455,69.071-69.034ZM274.42,548.553h21.16c0.738,0,1.467-.036,2.193-0.086l7.443,43.706H264.784l7.443-43.706C272.953,548.517,273.682,548.553,274.42,548.553Zm32.4-31.063a11.25,11.25,0,0,1-11.241,11.236H274.42a11.25,11.25,0,0,1-11.241-11.236V501.647L285,487.107l21.821,14.54V517.49ZM104.478,200.255c0-99.489,80.981-180.428,180.522-180.428s180.522,80.939,180.522,180.428S384.541,380.682,285,380.682,104.478,299.744,104.478,200.255ZM285,400.51a199.366,199.366,0,0,0,75.458-14.757L285,461.172l-75.458-75.419A199.359,199.359,0,0,0,285,400.51Zm-84.639,4.107,69.07,69.034-21.695,14.457-0.036.023-22.137,14.752a0.657,0.657,0,0,1-.549.108,0.526,0.526,0,0,1-.369-0.287c-17.473-31.4-36.122-64.935-43.726-78.648ZM19.838,580.937v-69.1c0-26.2,16.346-43.564,48.583-51.619l96.506-24.1c5.719,10.321,17.578,31.649,42.377,76.223a20.481,20.481,0,0,0,29.258,7.041l6.778-4.516v2.625a30.98,30.98,0,0,0,10.134,22.928l-8.812,51.753h-129.6V538.639a9.919,9.919,0,0,0-19.837,0v53.534H31.079A11.251,11.251,0,0,1,19.838,580.937Zm530.324,0a11.251,11.251,0,0,1-11.241,11.236H474.779V538.639a9.919,9.919,0,0,0-19.837,0v53.534h-129.6l-8.815-51.755a30.976,30.976,0,0,0,10.135-22.928v-2.625l6.779,4.517a20.626,20.626,0,0,0,11.422,3.45,20.408,20.408,0,0,0,17.834-10.492c24.775-44.528,36.633-65.858,42.36-76.19l96.523,24.067c32.24,8.057,48.586,25.423,48.586,51.621v69.1ZM443.039,200.255C443.039,113.157,372.144,42.3,285,42.3S126.961,113.157,126.961,200.255,197.856,358.212,285,358.212,443.039,287.353,443.039,200.255Zm-295.881,9.913H168.62a9.914,9.914,0,1,0,0-19.827H147.158c4.868-68.279,59.609-122.991,127.923-127.856v21.45a9.919,9.919,0,0,0,19.838,0V62.485c68.32,4.867,123.063,59.586,127.924,127.872-0.1,0-.2-0.014-0.3-0.014H401.38a9.914,9.914,0,1,0,0,19.827h21.16c0.1,0,.2-0.012.3-0.015-4.861,68.286-59.6,123.006-127.924,127.872V316.574a9.919,9.919,0,0,0-19.838,0v21.451C206.766,333.159,152.026,278.448,147.158,210.168Zm124.036,17.906a31.059,31.059,0,0,0,43.253-17.906H359.06a9.914,9.914,0,1,0,0-19.827H314.447a31.229,31.229,0,0,0-1.612-3.885l53.241-53.213a9.917,9.917,0,1,0-14.028-14.021l-53.241,53.214a31.056,31.056,0,0,0-43.253,17.905H242.68a9.914,9.914,0,1,0,0,19.827h12.873a31.1,31.1,0,0,0,1.612,3.885l-17.338,17.329A9.917,9.917,0,0,0,253.856,245.4ZM285,189.019a11.236,11.236,0,1,1-11.241,11.236A11.251,11.251,0,0,1,285,189.019Z"/>
</svg>
