<svg xmlns="http://www.w3.org/2000/svg" xmlns:xlink="http://www.w3.org/1999/xlink" width="485" height="612" viewBox="0 0 485 612">
  <metadata><?xpacket begin="﻿" id="W5M0MpCehiHzreSzNTczkc9d"?>
<x:xmpmeta xmlns:x="adobe:ns:meta/" x:xmptk="Adobe XMP Core 5.6-c142 79.160924, 2017/07/13-01:06:39        ">
   <rdf:RDF xmlns:rdf="http://www.w3.org/1999/02/22-rdf-syntax-ns#">
      <rdf:Description rdf:about=""/>
   </rdf:RDF>
</x:xmpmeta>
                                                                                                    
                                                                                                    
                                                                                                    
                                                                                                    
                                                                                                    
                                                                                                    
                                                                                                    
                                                                                                    
                                                                                                    
                                                                                                    
                                                                                                    
                                                                                                    
                                                                                                    
                                                                                                    
                                                                                                    
                                                                                                    
                                                                                                    
                                                                                                    
                                                                                                    
                                                                                                    
                           
<?xpacket end="w"?></metadata>
<defs>
    <style>
      .cls-1 {
        fill-rule: evenodd;
        filter: url(#filter);
      }
    </style>
    <filter id="filter" x="0" y="0" width="485" height="612" filterUnits="userSpaceOnUse">
      <feFlood result="flood" flood-color="#c11717"/>
      <feComposite result="composite" operator="in" in2="SourceGraphic"/>
      <feBlend result="blend" in2="SourceGraphic"/>
    </filter>
  </defs>
  <path id="Forma_1" data-name="Forma 1" class="cls-1" d="M429.443,442.986l-47.706-11.929c5.748-2.3,11.9-4.859,18.085-7.609,37.474-16.658,53.462-29.645,53.462-43.426,0-140.237-18.453-238.045-56.411-299.013C362.936,26.5,312.439,0,242.5,0S122.064,26.5,88.127,81.009C50.169,141.977,31.716,239.785,31.716,380.022c0,13.781,15.988,26.768,53.461,43.426,6.185,2.75,12.338,5.312,18.086,7.609L55.557,442.986A73.249,73.249,0,0,0,0,514.155v66.782A31.1,31.1,0,0,0,31.056,612H453.944A31.094,31.094,0,0,0,485,580.937V514.155A73.249,73.249,0,0,0,429.443,442.986Zm-272-5.041a41.575,41.575,0,0,0,31.532-40.395v-9.274a123.224,123.224,0,0,0,107.044.007v9.268a41.576,41.576,0,0,0,31.531,40.4l12.46,3.116c-24.367,29.869-60.722,63.415-97.513,76.531-36.791-13.117-73.147-46.664-97.513-76.531ZM242.5,380.682c-70.318,0-127.527-71.452-127.527-159.278v-6.3c55.1-50.282,162.491-57.1,204.671-57.748,8.128,26.905,22.709,62.394,48.113,92.908-5.274,35.8-20.336,68.446-42.664,92.3C302.081,367.144,272.75,380.682,242.5,380.682Zm-190.961-1.05c0.034-136.207,17.508-230.468,53.415-288.143C135.393,42.6,179.1,19.827,242.5,19.827S349.607,42.6,380.046,91.488c35.907,57.675,53.38,151.936,53.415,288.142-0.591,1.3-5.819,10.053-44.318,26.857-17.589,7.677-34.87,13.83-41.358,16.078l-15.424-3.857a21.778,21.778,0,0,1-16.516-21.159V376.743a150.976,150.976,0,0,0,23.718-20.633c26.056-27.835,43.261-66.075,48.448-107.679a9.909,9.909,0,0,0-2.363-7.738c-27.245-31.277-41.693-69.443-49.017-95.953a9.911,9.911,0,0,0-9.553-7.273c-22.194,0-66.28,1.478-112.187,11.376-51.561,11.116-90.843,29.585-116.755,54.892a9.92,9.92,0,0,0-2.987,7.093V221.4c0,66.324,29.813,124.344,74.005,155.3v20.846a21.779,21.779,0,0,1-16.516,21.159l-15.424,3.857c-6.469-2.24-23.667-8.364-41.242-16.028C57.369,389.7,52.131,380.932,51.539,379.632ZM465.177,580.937a11.247,11.247,0,0,1-11.233,11.236H400.422V543.378a9.911,9.911,0,1,0-19.822,0v48.795H104.4V543.378a9.911,9.911,0,1,0-19.823,0v48.795H31.056a11.247,11.247,0,0,1-11.233-11.236V514.155A53.455,53.455,0,0,1,60.363,462.22l63.493-15.876c39.9,52.321,85.409,81.341,115.579,91.149a9.918,9.918,0,0,0,6.127,0c30.17-9.808,75.678-38.828,115.579-91.149l63.493,15.876a53.454,53.454,0,0,1,40.543,51.935v66.782Z"/>
</svg>
