<svg xmlns="http://www.w3.org/2000/svg" xmlns:xlink="http://www.w3.org/1999/xlink" width="512" height="444" viewBox="0 0 512 444">
  <metadata><?xpacket begin="﻿" id="W5M0MpCehiHzreSzNTczkc9d"?>
<x:xmpmeta xmlns:x="adobe:ns:meta/" x:xmptk="Adobe XMP Core 5.6-c142 79.160924, 2017/07/13-01:06:39        ">
   <rdf:RDF xmlns:rdf="http://www.w3.org/1999/02/22-rdf-syntax-ns#">
      <rdf:Description rdf:about=""/>
   </rdf:RDF>
</x:xmpmeta>
                                                                                                    
                                                                                                    
                                                                                                    
                                                                                                    
                                                                                                    
                                                                                                    
                                                                                                    
                                                                                                    
                                                                                                    
                                                                                                    
                                                                                                    
                                                                                                    
                                                                                                    
                                                                                                    
                                                                                                    
                                                                                                    
                                                                                                    
                                                                                                    
                                                                                                    
                                                                                                    
                           
<?xpacket end="w"?></metadata>
<defs>
    <style>
      .cls-1 {
        fill-rule: evenodd;
        filter: url(#filter);
      }
    </style>
    <filter id="filter" x="0" y="0" width="512" height="444" filterUnits="userSpaceOnUse">
      <feFlood result="flood" flood-color="#c11717"/>
      <feComposite result="composite" operator="in" in2="SourceGraphic"/>
      <feBlend result="blend" in2="SourceGraphic"/>
    </filter>
  </defs>
  <path class="cls-1" d="M153.6,290.307a8.533,8.533,0,0,0,8.533-8.538V219.626a17.067,17.067,0,1,0-17.068,0v62.143A8.536,8.536,0,0,0,153.6,290.307ZM85.658,100.353c1.63,16.41,8.764,30.857,9.105,31.54,7.74,15.481,19.43,38.876,58.837,38.876s51.1-23.4,58.837-38.876c0.341-.683,7.475-15.13,9.1-31.54A17.093,17.093,0,0,0,230.4,85.385V68.307a17.062,17.062,0,0,0-8.533-14.78v-2.3A51.267,51.267,0,0,0,170.667,0H136.534a51.267,51.267,0,0,0-51.2,51.231v2.3A17.061,17.061,0,0,0,76.8,68.307V85.385A17.094,17.094,0,0,0,85.658,100.353Zm8.209-32.046a8.533,8.533,0,0,0,8.533-8.538V51.231a34.177,34.177,0,0,1,34.133-34.153h34.133A34.177,34.177,0,0,1,204.8,51.231v8.538a8.533,8.533,0,0,0,8.533,8.538V85.385a8.533,8.533,0,0,0-8.533,8.538c0,14.772-7.56,30.192-7.637,30.337-8.883,17.777-16.717,29.432-43.563,29.432s-34.68-11.655-43.554-29.424c-0.085-.154-7.646-15.574-7.646-30.345a8.533,8.533,0,0,0-8.533-8.538V68.307h0Zm76.8,17.077H179.2a8.538,8.538,0,0,0,0-17.076h-8.533A8.538,8.538,0,0,0,170.667,85.385Zm-42.667,0h8.533a8.538,8.538,0,0,0,0-17.076H128A8.538,8.538,0,0,0,128,85.385ZM59.733,290.307a8.534,8.534,0,0,0-8.533,8.538V435.46a8.533,8.533,0,1,0,17.066,0V298.845A8.533,8.533,0,0,0,59.733,290.307Zm393.1,0H452.8a8.537,8.537,0,0,0-8.533,8.5l-0.529,136.615a8.535,8.535,0,0,0,8.5,8.573h0.034a8.531,8.531,0,0,0,8.533-8.5l0.529-136.615A8.534,8.534,0,0,0,452.829,290.307ZM375.022,74.148a8.523,8.523,0,0,0-16.18,0c-6.417,19.254-25.3,19.767-26.044,19.775a8.533,8.533,0,0,0-8.533,8.538v34.153c0,28.518,19.473,68.308,51.2,68.308s51.2-39.789,51.2-68.308V102.461a8.533,8.533,0,0,0-8.533-8.538C417.765,93.923,381.439,93.384,375.022,74.148ZM409.6,136.615c0,23.208-15.224,51.231-34.133,51.231s-34.133-28.023-34.133-51.231V109.958A46.351,46.351,0,0,0,367.582,93.6c11.955,11.963,31.019,15.7,42.018,16.873v26.144h0Zm81.476,93.932c-16.725-16.7-41.847-25.522-72.687-25.522a8.728,8.728,0,0,0-8.789,8.513c-0.009,1.742-.6,42.616-34.133,42.616s-34.125-40.866-34.133-42.607a8.533,8.533,0,0,0-17.066.025c0,19.093,9.216,53.87,42.667,58.967v43.384a8.533,8.533,0,1,0,17.066,0V272.53c28.8-4.4,39.646-30.765,42.1-50.215,22.63,1.271,40.815,8.223,52.924,20.321a54.793,54.793,0,0,1,15.915,39.131V418.382a8.533,8.533,0,1,0,17.066,0V281.768A71.791,71.791,0,0,0,491.075,230.547Zm-243.609,59.76a8.533,8.533,0,0,0-8.532,8.538V435.46a8.533,8.533,0,1,0,17.065,0V298.845A8.534,8.534,0,0,0,247.466,290.307ZM366.932,34.154H384c22.46,0,49.749,23.071,51.226,43.35l8.533,111a8.532,8.532,0,0,0,8.5,7.881c0.213,0,.444-0.008.666-0.026a8.539,8.539,0,0,0,7.851-9.17L452.241,76.222C449.962,44.929,412.185,17.077,384,17.077H366.932c-31.061,0-65.493,29.765-68.241,59.111l-8.533,111a8.533,8.533,0,1,0,17.016,1.314L315.7,77.639C317.6,57.319,344.891,34.154,366.932,34.154Zm-170.111,153.8a8.766,8.766,0,0,0-8.909,6.8L153.6,359.486,119.287,194.753c-0.862-4.149-4.821-6.788-8.926-6.8-44.826,0-79.121,9.606-96.606,27.058C4.634,224.134,0,235.106,0,247.615V418.384a8.533,8.533,0,1,0,17.066,0V247.615c0-7.924,2.867-14.635,8.747-20.519,13.3-13.276,41.574-21.175,78.191-22l41.225,197.828c0,0.017.009,0.034,0.009,0.051l0.008,0.068c0.06,0.265.239,0.469,0.316,0.725a8.39,8.39,0,0,0,.981,2.289,8.125,8.125,0,0,0,1.024,1.067,9.318,9.318,0,0,0,1.289,1.255,8.338,8.338,0,0,0,1.86.785,7.6,7.6,0,0,0,1.143.5h0.06a8.586,8.586,0,0,0,1.69.009,8.672,8.672,0,0,0,1.7-.009h0.034a7.339,7.339,0,0,0,.759-0.325,5.447,5.447,0,0,0,3.362-2.041,8.231,8.231,0,0,0,1.2-1.237,8.339,8.339,0,0,0,.956-2.246,7.87,7.87,0,0,0,.333-0.768l0.008-.068c0-.017.009-0.034,0.009-0.051L203.2,205.1c36.625,0.82,64.9,8.727,78.19,22,5.88,5.883,8.747,12.6,8.747,20.519V418.384a8.533,8.533,0,1,0,17.066,0V247.615c0-12.509-4.634-23.481-13.756-32.6C275.958,197.554,241.664,187.957,196.821,187.957Z"/>
</svg>
